<?xml version="1.0" encoding="utf-8"?>
<!-- Generator: Adobe Illustrator 19.1.0, SVG Export Plug-In . SVG Version: 6.00 Build 0)  -->
<svg version="1.1" id="Layer_1" xmlns="http://www.w3.org/2000/svg" xmlns:xlink="http://www.w3.org/1999/xlink" x="0px" y="0px"
	 viewBox="121.6 58.4 100 100" style="enable-background:new 121.6 58.4 100 100;" xml:space="preserve">
<style type="text/css">
	.st0{fill:#FFFFFF;}
	.st1{fill:#BD081C;}
</style>
<g id="Pinterest_badge">
	<path class="st0" d="M221.6,108.4c0,27.6-22.4,50-50,50s-50-22.4-50-50s22.4-50,50-50C199.2,58.4,221.6,80.7,221.6,108.4"/>
	<g>
		<path class="st1" d="M171.6,58.6c-27.5,0-49.8,22.3-49.8,49.8c0,21.1,13.1,39.1,31.6,46.4c-0.4-3.9-0.8-10,0.2-14.3
			c0.9-3.9,5.8-24.7,5.8-24.7s-1.5-3-1.5-7.4c0-6.9,4-12.1,9-12.1c4.3,0,6.3,3.2,6.3,7c0,4.3-2.7,10.7-4.1,16.6c-1.2,5,2.5,9,7.4,9
			c8.9,0,15.7-9.3,15.7-22.8c0-11.9-8.6-20.3-20.8-20.3c-14.2,0-22.5,10.6-22.5,21.6c0,4.3,1.6,8.9,3.7,11.4
			c0.4,0.5,0.5,0.9,0.3,1.4c-0.4,1.6-1.2,5-1.4,5.6c-0.2,0.9-0.7,1.1-1.7,0.7c-6.2-2.9-10.1-12-10.1-19.3
			c0-15.7,11.4-30.1,32.9-30.1c17.3,0,30.7,12.3,30.7,28.8c0,17.2-10.8,31-25.8,31c-5,0-9.8-2.6-11.4-5.7c0,0-2.5,9.5-3.1,11.8
			c-1.1,4.3-4.2,9.7-6.2,13c4.7,1.5,9.6,2.2,14.8,2.2c27.5,0,49.8-22.3,49.8-49.8C221.5,80.9,199.2,58.6,171.6,58.6z"/>
	</g>
</g>
</svg>
