<?xml version="1.0" encoding="utf-8"?>
<!-- Generator: Adobe Illustrator 19.1.0, SVG Export Plug-In . SVG Version: 6.00 Build 0)  -->
<svg version="1.1" id="Layer_1" xmlns="http://www.w3.org/2000/svg" xmlns:xlink="http://www.w3.org/1999/xlink" x="0px" y="0px"
	 viewBox="0 0 108.1 108.1" style="enable-background:new 0 0 108.1 108.1;" xml:space="preserve">
<style type="text/css">
	.st0{fill:none;stroke:#010101;stroke-width:6;stroke-linecap:round;stroke-linejoin:round;stroke-miterlimit:10;}
	.st1{fill:#FFFFFF;stroke:#010101;stroke-width:6;stroke-linecap:round;stroke-linejoin:round;stroke-miterlimit:10;}
</style>
<g>
	<circle class="st0" cx="43.5" cy="22.6" r="17.5"/>
	<path class="st1" d="M42.6,102.9C43.1,87.1,27.3,74.4,21,61.1c-1.9-3.9,1.6-9.4,7.9-8.5c4.6,0.7,6.9,8.1,8.7,11.7
		C37.9,57.9,38,51.5,38,45c0-6.7-0.7-13.6-0.4-20.3c0.1-3.3,1-8.3,5-9.1c10.1-2.1,9,16.1,9.1,20.8c0.1,5.9,0.2,11.8-0.3,17.6
		c0-4.3-0.4-14,6.1-13.9c7,0.1,5.7,11.7,5.8,16.1c-0.1-4.2-0.1-11.5,5.5-12.1c7-0.8,6.3,10.2,6.3,14.5c0-3.5,0.2-12.4,5.8-11.8
		c6.3,0.6,6.5,9,6.7,13.3c0.5,13.9-5.1,25.5-7.7,38.8c-0.8,3.9,0.3,4-3.6,4c-4.2,0-8.4,0-12.5,0C56.7,102.9,49.6,102.9,42.6,102.9z"
		/>
</g>
</svg>
