<?xml version="1.0" encoding="utf-8"?>
<!-- Generator: Adobe Illustrator 19.1.0, SVG Export Plug-In . SVG Version: 6.00 Build 0)  -->
<svg version="1.1" id="Layer_1" xmlns="http://www.w3.org/2000/svg" xmlns:xlink="http://www.w3.org/1999/xlink" x="0px" y="0px"
	 width="100px" height="100px" viewBox="-262.5 230.6 100 100" style="enable-background:new -262.5 230.6 100 100;"
	 xml:space="preserve">
<style type="text/css">
	.st0{clip-path:url(#SVGID_2_);fill:#3B5998;}
	.st1{fill:#FFFFFF;}
</style>
<g>
	<defs>
		<ellipse id="SVGID_1_" cx="-212.5" cy="280.4" rx="50" ry="49.8"/>
	</defs>
	<clipPath id="SVGID_2_">
		<use xlink:href="#SVGID_1_"  style="overflow:visible;"/>
	</clipPath>
	<path id="Blue_1_" class="st0" d="M-168.1,330.6c3,0,5.5-2.5,5.5-5.5v-89c0-3-2.5-5.5-5.5-5.5h-89c-3,0-5.5,2.5-5.5,5.5v89
		c0,3,2.5,5.5,5.5,5.5L-168.1,330.6L-168.1,330.6z"/>
</g>
<path id="f" class="st1" d="M-193.5,330.5v-38.7h13l1.9-15.1h-14.9v-9.6c0-4.4,1.2-7.3,7.5-7.3h8v-13.5c-1.4-0.2-6.1-0.6-11.7-0.6
	c-11.5,0-19.4,7-19.4,19.9v11.1h-13v15.1h13v38.7H-193.5z"/>
</svg>
