<?xml version="1.0" encoding="utf-8"?>
<!-- Generator: Adobe Illustrator 19.1.0, SVG Export Plug-In . SVG Version: 6.00 Build 0)  -->
<svg version="1.1" id="Layer_1" xmlns="http://www.w3.org/2000/svg" xmlns:xlink="http://www.w3.org/1999/xlink" x="0px" y="0px"
	 viewBox="-67 347 100 100" style="enable-background:new -67 347 100 100;" xml:space="preserve">
<style type="text/css">
	.st0{fill:#55ACEE;}
	.st1{fill:#FFFFFF;}
</style>
<circle class="st0" cx="-17" cy="397" r="50"/>
<path class="st1" d="M22.4,372.6c-2.9,1.3-6,2.2-9.3,2.5c3.3-2,5.9-5.1,7.1-8.9c-3.1,1.8-6.6,3.2-10.2,3.9C7,367,2.9,365-1.8,365
	c-8.9,0-16.2,7.3-16.2,16.2c0,1.2,0.1,2.5,0.4,3.7c-13.5-0.7-25.4-7.1-33.4-16.9c-1.4,2.4-2.2,5.1-2.2,8.1c0,5.6,2.8,10.6,7.2,13.5
	c-2.6-0.1-5.1-0.8-7.3-2c0,0.1,0,0.1,0,0.2c0,7.8,5.6,14.3,13,15.8c-1.4,0.4-2.8,0.6-4.3,0.6c-1,0-2-0.1-3.1-0.3
	c2,6.4,8.1,11.1,15.1,11.2C-38,419.4-45,422-52.6,422c-1.3,0-2.6-0.1-3.9-0.2c7.1,4.5,15.6,7.3,24.8,7.3c29.7,0,46-24.6,46-46
	c0-0.7,0-1.4-0.1-2.1C17.5,378.7,20.2,375.9,22.4,372.6z"/>
</svg>
