<?xml version="1.0" encoding="utf-8"?>
<!-- Generator: Adobe Illustrator 18.1.1, SVG Export Plug-In . SVG Version: 6.00 Build 0)  -->
<svg version="1.1" id="Layer_1" xmlns="http://www.w3.org/2000/svg" xmlns:xlink="http://www.w3.org/1999/xlink" x="0px" y="0px"
	 width="288px" height="288px" viewBox="-161 253 288 288" enable-background="new -161 253 288 288" xml:space="preserve">
<circle fill="#55ACEE" cx="-17" cy="397" r="144"/>
<path fill="#FFFFFF" d="M96.4,326.7c-8.4,3.8-17.3,6.2-26.7,7.3c9.6-5.7,17-14.8,20.5-25.7c-8.9,5.3-18.9,9.2-29.5,11.3
	c-8.5-9.1-20.5-14.7-33.9-14.7c-25.7,0-46.6,20.9-46.6,46.6c0,3.6,0.4,7.2,1.2,10.6c-38.9-2-73.1-20.5-96.1-48.6
	c-4,6.8-6.3,14.8-6.3,23.4c0,16.2,8.2,30.4,20.8,38.8c-7.6-0.2-14.8-2.3-21.1-5.9c0,0.2,0,0.4,0,0.6c0,22.5,16,41.3,37.3,45.6
	c-3.9,1.1-8.1,1.7-12.3,1.7c-3,0-5.9-0.3-8.8-0.9c5.9,18.5,23.2,31.9,43.5,32.3c-15.9,12.5-36,19.9-57.9,19.9
	c-3.8,0-7.5-0.2-11.2-0.7c20.5,13.1,45,20.9,71.3,20.9c85.6,0,132.4-70.9,132.4-132.4c0-2-0.1-4.1-0.2-6.1
	C82.3,344.3,90.2,336.1,96.4,326.7z"/>
</svg>
