<?xml version="1.0" encoding="utf-8"?>
<!-- Generator: Adobe Illustrator 19.1.0, SVG Export Plug-In . SVG Version: 6.00 Build 0)  -->
<svg version="1.1" id="Layer_1" xmlns="http://www.w3.org/2000/svg" xmlns:xlink="http://www.w3.org/1999/xlink" x="0px" y="0px"
	 viewBox="0 0 108.1 108.1" style="enable-background:new 0 0 108.1 108.1;" xml:space="preserve">
<style type="text/css">
	.st0{fill:#010101;}
</style>
<path class="st0" d="M53.6,73.8c-1,0-1.7-0.3-2.3-0.6C52,73.5,52.8,73.8,53.6,73.8z"/>
<g>
	<path class="st0" d="M107.7,61.8V88c-0.1,5.7-4.2,10.3-9.5,11.5c-0.8,0.2-1.6,0.3-2.5,0.3H12.4c-0.8,0-1.7-0.1-2.5-0.3
		C4.6,98.3,0.5,93.7,0.4,88V61.8c0-2.8,2.2-5,5-5c2.8,0,5,2.2,5,5v26c0,1.1,1,1.9,2,1.9h83.3c1.1,0,2-0.9,2-1.9v-26c0-2.8,2.2-5,5-5
		S107.7,59,107.7,61.8z"/>
	<path class="st0" d="M98.2,99.4c-0.5,0.2-1,0.3-1.6,0.3h-0.9C96.5,99.7,97.4,99.6,98.2,99.4z"/>
</g>
<g>
	<path class="st0" d="M12.3,99.7h-0.9c-0.6,0-1.1-0.1-1.6-0.3C10.6,99.6,11.4,99.7,12.3,99.7z"/>
</g>
<path class="st0" d="M19.6,39.8c-0.8,1-1.2,2.3-1.3,3.7C18.2,42.1,18.7,40.8,19.6,39.8z"/>
<path class="st0" d="M89.8,44.1c0-1.2-0.4-2.3-1-3.3C89.5,41.8,89.8,43,89.8,44.1z"/>
<path class="st0" d="M60.2,67.7h-0.3c0-0.5,0.1-1,0.1-1.6C60.1,66.6,60.2,67.1,60.2,67.7z"/>
<path class="st0" d="M60.2,39.4v28.3h-0.3c0-0.5,0.1-1,0.1-1.6c0,0,0,0,0,0c0-0.9,0-2,0-3.2L60.2,39.4z"/>
<path class="st0" d="M20.6,38.7l-0.8,0.8c-0.1,0.1-0.2,0.2-0.2,0.3C19.9,39.4,20.2,39,20.6,38.7z"/>
<path class="st0" d="M89.8,44.1L89.8,44.1c0,0.1,0,0.2,0,0.2c-0.1,3.2-2.8,5.8-6,5.8c-1.7,0-3.2-0.7-4.3-1.8
	c-0.1-0.1-0.2-0.2-0.3-0.2L60.2,29.2l-0.1,10.2l-0.2,23.5c0,1.2,0,2.3,0,3.2c0,0,0,0,0,0c0,0.6-0.1,1.1-0.1,1.6h0.3
	c0,3.4-2.7,6.1-6.1,6.1c-0.1,0-0.3,0-0.4,0c-0.8-0.1-1.6-0.3-2.3-0.6c0,0,0,0,0,0c-2-1-3.4-3.1-3.4-5.5V31.4l-0.1-2.9L29,47.4
	c0,0-0.1,0.1-0.1,0.1c-1.1,1.2-2.7,2-4.5,2c-3.3,0-6-2.6-6-5.9c0-0.1,0-0.1,0-0.2v0c0-1.4,0.5-2.7,1.3-3.7c0.1-0.1,0.2-0.2,0.2-0.3
	L50,9.3c2-2,5.3-2,7.3,0l0.8,0.7l29.3,29.3l0.9,0.9c0.1,0.1,0.2,0.3,0.4,0.4c0.1,0.1,0.1,0.2,0.2,0.3C89.4,41.8,89.8,42.9,89.8,44.1
	z"/>
<path class="st0" d="M88.6,40.6c-0.1-0.1-0.2-0.3-0.4-0.4l-0.9-0.9C87.8,39.6,88.3,40.1,88.6,40.6z"/>
</svg>
